<?xml version="1.0" encoding="utf-8"?>
<!-- Generator: Adobe Illustrator 23.0.6, SVG Export Plug-In . SVG Version: 6.00 Build 0)  -->
<svg version="1.1" id="Layer_1" xmlns="http://www.w3.org/2000/svg" xmlns:xlink="http://www.w3.org/1999/xlink" x="0px" y="0px"
	 viewBox="0 0 32 32" style="enable-background:new 0 0 32 32;" xml:space="preserve">
<style type="text/css">
	.st0{fill:#79B743;stroke:#79B743;stroke-width:0.4;}
</style>
<title>edit@3x</title>
<desc>Created with Sketch.</desc>
<g id="Page-1">
	<g id="Desktop" transform="translate(-4.000000, -4.000000)">
		<g id="edit" transform="translate(5.000000, 5.000000)">
			<path id="Shape" class="st0" d="M5.1,19.1L4.8,23c0,0.2,0,0.3,0.2,0.4c0.1,0.1,0.2,0.2,0.4,0.2c0,0,0,0,0,0l3.9-0.3
				c0.1,0,0.3-0.1,0.3-0.2L24.2,8.6c0.2-0.2,0.2-0.6,0-0.8l-3.6-3.6c-0.2-0.2-0.6-0.2-0.8,0L5.2,18.7C5.1,18.8,5.1,18.9,5.1,19.1
				L5.1,19.1z M6.1,19.4l14-14L23,8.2l-14,14l-3.1,0.2L6.1,19.4z"/>
			<path id="Path" class="st0" d="M4.5,25.4c0,0.3,0.2,0.5,0.5,0.5h20.8c0.3,0,0.5-0.2,0.5-0.5c0-0.3-0.2-0.5-0.5-0.5H5
				C4.7,24.8,4.5,25.1,4.5,25.4z"/>
		</g>
	</g>
</g>
</svg>
