<svg id="Layer_1" data-name="Layer 1" xmlns="http://www.w3.org/2000/svg" viewBox="0 0 30 30"><defs><style>.cls-1{fill:#e7ecec;}.cls-2{fill:#566181;}</style></defs><title>icon-user</title><path class="cls-1" d="M11.56,24.52L7.09,27a4,4,0,0,0-.72.51,15,15,0,0,0,19.26,0A4,4,0,0,0,24.84,27L20,24.6A1.83,1.83,0,0,1,19,23V21.08a7.24,7.24,0,0,0,.45-0.58,11,11,0,0,0,1.49-3A1.51,1.51,0,0,0,22,16.07v-2a1.5,1.5,0,0,0-.5-1.11V10S22.14,5.53,16,5.53,10.51,10,10.51,10v2.9a1.5,1.5,0,0,0-.5,1.11v2a1.5,1.5,0,0,0,.69,1.26,10,10,0,0,0,1.81,3.75v1.83A1.83,1.83,0,0,1,11.56,24.52Z" transform="translate(-1 -1)"/><path class="cls-2" d="M16.26,1A15,15,0,0,0,6.35,27.47,4,4,0,0,1,7.06,27l4.48-2.44a1.83,1.83,0,0,0,1-1.6V21.08a10,10,0,0,1-1.81-3.75A1.51,1.51,0,0,1,10,16.06v-2a1.5,1.5,0,0,1,.5-1.11V10S9.89,5.53,16,5.53,21.52,10,21.52,10v2.9a1.5,1.5,0,0,1,.5,1.11v2A1.51,1.51,0,0,1,21,17.5a11,11,0,0,1-1.49,3,7.24,7.24,0,0,1-.45.58V23a1.83,1.83,0,0,0,1,1.63L24.81,27a4,4,0,0,1,.79.53A15,15,0,0,0,16.26,1Z" transform="translate(-1 -1)"/></svg>