<?xml version="1.0" encoding="utf-8"?>
<!-- Generator: Adobe Illustrator 24.0.3, SVG Export Plug-In . SVG Version: 6.00 Build 0)  -->
<svg version="1.1" id="Layer_1" xmlns="http://www.w3.org/2000/svg" xmlns:xlink="http://www.w3.org/1999/xlink" x="0px" y="0px"
	 viewBox="0 0 27.4 29.1" style="enable-background:new 0 0 27.4 29.1;" xml:space="preserve">
<style type="text/css">
	.st0{fill:none;stroke:#DB424D;stroke-width:2;stroke-miterlimit:10;}
</style>
<title>icon-delete-inactive</title>
<path class="st0" d="M25.1,7.9c0.8,0,1.3-0.8,1.3-1.8c0-0.8-0.5-1.6-1.3-1.8h-6.4c0.1-1.7-1.2-3.1-2.8-3.2c-0.1,0-0.2,0-0.3,0h-3.2
	c-1.7-0.1-3.1,1.2-3.1,2.8c0,0.1,0,0.2,0,0.3H2.9C1.9,4.2,1.1,5,1,6c0,1,0.8,1.9,1.9,1.9l0,0v18.3c0,0.5,0.2,0.9,0.6,1.3
	c0.2,0.3,0.5,0.5,0.8,0.6h19.5c0.8,0,1.3-0.8,1.3-1.9v-0.3L25.1,7.9L25.1,7.9z"/>
<line class="st0" x1="16.5" y1="13.2" x2="16.5" y2="22.2"/>
<line class="st0" x1="11.5" y1="13.2" x2="11.5" y2="22.2"/>
<line class="st0" x1="3.6" y1="7.9" x2="25.1" y2="7.9"/>
</svg>
